<?xml version="1.0" encoding="UTF-8"?>
<svg version="1.1" xmlns="http://www.w3.org/2000/svg" width="457" height="88">
<path d="M0 0 C1.9375 1.6875 1.9375 1.6875 3 3 C3.33 1.35 3.66 -0.3 4 -2 C8.29 -2 12.58 -2 17 -2 C17.067897 5.71936606 17.12288586 13.43862021 17.15543652 21.15821266 C17.17106279 24.74312092 17.1922448 28.3278135 17.22631836 31.91259766 C17.25902129 35.37502525 17.27687586 38.83724596 17.28463173 42.29981613 C17.29283593 44.2573708 17.31623793 46.21484276 17.33988953 48.17227173 C17.34011612 49.37306366 17.34034271 50.57385559 17.34057617 51.81103516 C17.34723801 52.86360504 17.35389984 53.91617493 17.36076355 55.00064087 C16.87023818 59.07882933 15.58066088 62.70016956 12.34277344 65.36279297 C8.75449343 66.33876325 5.20311941 66.24357567 1.515625 66.1953125 C0.70003113 66.1924826 -0.11556274 66.18965271 -0.95587158 66.18673706 C-3.55406528 66.17556558 -6.15191095 66.15046675 -8.75 66.125 C-10.51431793 66.11496627 -12.27864128 66.10584111 -14.04296875 66.09765625 C-18.36211273 66.07563619 -22.68099741 66.04112733 -27 66 C-27 62.37 -27 58.74 -27 55 C-26.12674072 54.97494385 -25.25348145 54.9498877 -24.35375977 54.92407227 C-21.12397448 54.82912291 -17.89435846 54.72987971 -14.66479492 54.62768555 C-13.26510801 54.58428566 -11.86536641 54.54261436 -10.46557617 54.50268555 C-8.45738505 54.44510555 -6.44938851 54.38086 -4.44140625 54.31640625 C-2.62684937 54.26141968 -2.62684937 54.26141968 -0.77563477 54.20532227 C1.90705456 54.31061734 1.90705456 54.31061734 3 53 C3.07244053 50.98035801 3.08377188 48.95832876 3.0625 46.9375 C3.05347656 45.83277344 3.04445313 44.72804687 3.03515625 43.58984375 C3.02355469 42.73519531 3.01195312 41.88054688 3 41 C1.6078125 42.2065625 1.6078125 42.2065625 0.1875 43.4375 C-4.44855148 47.45541128 -8.99354908 47.34499639 -14.92578125 47.2734375 C-21.98648152 46.64542096 -26.29546936 43.25506126 -30.7734375 37.9765625 C-35.4544832 30.43322134 -35.29792984 19.63472536 -33.34765625 11.16796875 C-30.78879884 4.72140524 -26.35008707 0.63782035 -20.1875 -2.375 C-12.80699396 -3.82215805 -6.6379806 -3.65766278 0 0 Z M-19 13 C-21.70154361 17.50257269 -21.6382707 21.88575503 -21 27 C-19.10731344 31.16391042 -17.63063839 32.63113604 -13.6875 34.9375 C-9.51071315 36.14098096 -7.17566881 36.159908 -3 35 C0.91207911 32.56581744 2.87863397 30.4854641 4 26 C4.4445143 20.39911985 4.23718467 16.79996348 1 12 C-2.78501499 8.55907728 -6.71560657 8.49111271 -11.625 8.64453125 C-15.04405475 9.15626477 -16.72750658 10.4434449 -19 13 Z " fill="#FFFFFF" transform="translate(362,21)"/>
<path d="M0 0 C7.92 0 15.84 0 24 0 C26.22180758 8.27407816 28.43939363 16.54925238 30.64957428 24.82644272 C31.67602053 28.66983794 32.7043072 32.5127209 33.73681641 36.35449219 C34.73320096 40.06212127 35.72472922 43.7710178 36.71290588 47.48084259 C37.09073777 48.89587865 37.47031625 50.31044954 37.85166931 51.72454071 C38.38556402 53.70545626 38.91322106 55.68793573 39.43945312 57.67089844 C39.89245789 59.36300446 39.89245789 59.36300446 40.35461426 61.08929443 C41 64 41 64 41 68 C36.38 68 31.76 68 27 68 C24 57.5 24 57.5 24 53 C16.08 53 8.16 53 0 53 C-0.33 55.64 -0.66 58.28 -1 61 C-1.55345979 63.39159267 -2.26670653 65.65346091 -3 68 C-7.62 68 -12.24 68 -17 68 C-15.60061415 59.68007056 -13.6994018 51.60553657 -11.5234375 43.45703125 C-11.19332672 42.20742111 -10.86321594 40.95781097 -10.52310181 39.67033386 C-9.65554291 36.386444 -8.78296258 33.10390994 -7.90924072 29.82165527 C-7.0145138 26.45679514 -6.12466511 23.09064558 -5.234375 19.72460938 C-3.49428903 13.1484859 -1.74843086 6.57390964 0 0 Z M11 9 C9.9970154 12.91285939 9.00029303 16.82725564 8.00927734 20.74316406 C7.67146625 22.07432762 7.33196479 23.40506342 6.99072266 24.73535156 C6.49975601 26.6505509 6.01542258 28.56744681 5.53125 30.484375 C5.23798828 31.63647461 4.94472656 32.78857422 4.64257812 33.97558594 C3.86145016 37.13679024 3.86145016 37.13679024 4 41 C9.28 41 14.56 41 20 41 C19.32646876 33.97481339 17.69695944 27.3255596 15.9375 20.5 C15.65583984 19.39140625 15.37417969 18.2828125 15.08398438 17.140625 C14.39361604 14.4259563 13.69885625 11.71249362 13 9 C12.34 9 11.68 9 11 9 Z " fill="#FFFFFF" transform="translate(17,0)"/>
<path d="M0 0 C5.94537489 6.45497845 5.57898688 15.14726394 5.375 23.4375 C5.35469727 25.02208008 5.35469727 25.02208008 5.33398438 26.63867188 C5.2989709 29.21799809 5.24986675 31.79621494 5.1875 34.375 C7.1675 34.375 9.1475 34.375 11.1875 34.375 C11.1875 38.005 11.1875 41.635 11.1875 45.375 C-0.64244076 46.23640345 -0.64244076 46.23640345 -4.5625 42.875 C-5.305 42.05 -6.0475 41.225 -6.8125 40.375 C-7.575625 41.179375 -8.33875 41.98375 -9.125 42.8125 C-13.79405495 47.26438961 -18.48626331 46.65428676 -24.64453125 46.5859375 C-30.14798044 46.21949329 -32.71719165 44.42162798 -36.625 40.6875 C-40.02105656 35.54490007 -40.1654891 31.68903967 -39.25 25.6875 C-37.44631996 21.53119381 -35.58049914 19.86330132 -31.8125 17.375 C-26.35717737 15.41893519 -21.57815365 15.12293745 -15.875 15.25 C-15.09576172 15.25902344 -14.31652344 15.26804687 -13.51367188 15.27734375 C-11.61314553 15.30066309 -9.71277992 15.33652414 -7.8125 15.375 C-9.33115214 11.07611387 -9.33115214 11.07611387 -11.8125 7.375 C-13.84520562 7.13679079 -13.84520562 7.13679079 -16.1875 7.125 C-16.97898437 7.09921875 -17.77046875 7.0734375 -18.5859375 7.046875 C-21.33964035 7.45268384 -22.14521658 8.18605121 -23.8125 10.375 C-24.1425 11.365 -24.4725 12.355 -24.8125 13.375 C-26.23055831 13.09017632 -27.64690379 12.79681856 -29.0625 12.5 C-29.85140625 12.33757813 -30.6403125 12.17515625 -31.453125 12.0078125 C-33.78081144 11.38349925 -35.70281952 10.52661458 -37.8125 9.375 C-35.1134384 2.73980691 -32.38718669 -0.63300391 -25.8125 -3.625 C-16.70636957 -6.53081804 -8.02624454 -4.63738573 0 0 Z M-25.8125 27.375 C-25.97931109 30.29152174 -25.97931109 30.29152174 -25.8125 33.375 C-23.13583129 36.05166871 -21.57300325 36.16214133 -17.8125 36.375 C-13.77432083 35.14301313 -11.47902546 34.23503286 -8.875 30.875 C-7.61692968 28.36757025 -7.61692968 28.36757025 -7.8125 25.375 C-10.06223447 25.320862 -12.31234383 25.28214509 -14.5625 25.25 C-16.44195312 25.21519531 -16.44195312 25.21519531 -18.359375 25.1796875 C-21.54070492 25.35962698 -23.17771896 25.68501418 -25.8125 27.375 Z " fill="#FFFFFF" transform="translate(311.8125,22.625)"/>
<path d="M0 0 C5.26277236 4.44514252 7.41314513 9.38810469 9 16 C9 19.3 9 22.6 9 26 C-2.22 26.33 -13.44 26.66 -25 27 C-21.97380619 32.37883875 -21.97380619 32.37883875 -17 35 C-13.83517496 35.19249383 -11.02929918 34.95513351 -8 34 C-5.41082032 31.62425779 -5.41082032 31.62425779 -4 29 C0.12751449 29.60698743 3.3321148 31.03810791 7 33 C6.5073899 37.20891862 5.48670851 38.98010284 2.25 41.6875 C1.23679687 42.55955078 1.23679687 42.55955078 0.203125 43.44921875 C-6.53476706 48.19202575 -14.11002187 47.65539754 -22 47 C-28.70042293 45.35355082 -33.18436991 40.55961614 -37 35 C-40.43458041 27.38419126 -40.20650713 17.4690804 -37.5 9.625 C-34.58868746 3.30858339 -30.01363836 -0.69219467 -23.6875 -3.4375 C-15.07862058 -4.75071889 -7.49617887 -4.93900284 0 0 Z M-23.125 10.3125 C-25.2860908 12.8639082 -25.2860908 12.8639082 -25 16 C-18.4 16 -11.8 16 -5 16 C-5.48544944 11.19701128 -5.48544944 11.19701128 -7.75390625 9.21875 C-12.94255787 6.40334251 -18.47894845 6.87442185 -23.125 10.3125 Z " fill="#FFFFFF" transform="translate(428,22)"/>
<path d="M0 0 C6.07180655 4.01236339 9.17334012 9.40874672 11.00390625 16.32421875 C11.00390625 19.95421875 11.00390625 23.58421875 11.00390625 27.32421875 C-0.21609375 27.65421875 -11.43609375 27.98421875 -22.99609375 28.32421875 C-19.96989994 33.7030575 -19.96989994 33.7030575 -14.99609375 36.32421875 C-11.83126871 36.51671258 -9.02539293 36.27935226 -5.99609375 35.32421875 C-3.40691407 32.94847654 -3.40691407 32.94847654 -1.99609375 30.32421875 C2.13142074 30.93120618 5.33602105 32.36232666 9.00390625 34.32421875 C8.51129615 38.53313737 7.49061476 40.30432159 4.25390625 43.01171875 C3.24070312 43.88376953 3.24070312 43.88376953 2.20703125 44.7734375 C-4.53086081 49.5162445 -12.10611562 48.97961629 -19.99609375 48.32421875 C-26.69651668 46.67776957 -31.18046366 41.88383489 -34.99609375 36.32421875 C-38.44810724 28.66975406 -38.20096389 18.74937553 -35.43359375 10.88671875 C-32.6123729 4.78892211 -28.33244377 1.15564898 -22.24609375 -1.55078125 C-14.72571779 -3.9799936 -7.04450025 -3.59156095 0 0 Z M-21.12109375 11.63671875 C-23.28218455 14.18812695 -23.28218455 14.18812695 -22.99609375 17.32421875 C-16.06609375 17.32421875 -9.13609375 17.32421875 -1.99609375 17.32421875 C-4.33457517 11.40690857 -4.33457517 11.40690857 -7.99609375 9.32421875 C-13.15428654 8.49366228 -16.86182193 8.48485761 -21.12109375 11.63671875 Z " fill="#FFFFFF" transform="translate(167.99609375,20.67578125)"/>
<path d="M0 0 C3.22358471 2.89117669 5.11797086 5.73685916 6 10 C4.58603098 10.50757862 3.16868271 11.00574925 1.75 11.5 C0.96109375 11.7784375 0.1721875 12.056875 -0.640625 12.34375 C-3 13 -3 13 -7 13 C-7.28875 12.360625 -7.5775 11.72125 -7.875 11.0625 C-8.82823451 8.84793921 -8.82823451 8.84793921 -11 8 C-12.70702735 7.93003986 -14.41668003 7.91559846 -16.125 7.9375 C-17.03507812 7.94652344 -17.94515625 7.95554687 -18.8828125 7.96484375 C-19.93082031 7.98224609 -19.93082031 7.98224609 -21 8 C-20.67 9.65 -20.34 11.3 -20 13 C-18.77023438 13.31453125 -17.54046875 13.6290625 -16.2734375 13.953125 C-14.64046957 14.38482917 -13.00766558 14.81715378 -11.375 15.25 C-10.56675781 15.45496094 -9.75851563 15.65992187 -8.92578125 15.87109375 C-3.0502632 17.44745225 1.53212625 19.44342888 5.84765625 23.9140625 C8.09998765 27.99116409 7.58740586 32.49655508 7 37 C4.82596402 41.50911167 2.50906984 43.85819183 -2 46 C-9.17513879 48.33150963 -19.13552171 48.21558055 -26.125 45.375 C-30.16206296 43.21174362 -32.5307276 40.85823812 -35 37 C-35.8125 33.625 -35.8125 33.625 -36 31 C-34.56445975 30.49440092 -33.1264798 29.9957251 -31.6875 29.5 C-30.88699219 29.2215625 -30.08648437 28.943125 -29.26171875 28.65625 C-27 28 -27 28 -24 28 C-22.65668346 29.99330842 -21.32405988 31.99384866 -20 34 C-17.3440017 36.18171289 -15.18680594 36.10814157 -11.875 35.875 C-7.97481752 35.44183807 -7.97481752 35.44183807 -6.5 32.9375 C-6.335 32.298125 -6.17 31.65875 -6 31 C-9.74321931 28.48600113 -12.89531284 27.43966685 -17.3125 26.625 C-24.30241241 25.11923656 -29.94118367 23.08822449 -34 17 C-34.57092896 12.21012845 -34.60816123 7.58797656 -32.875 3.0625 C-24.48910548 -6.16198397 -10.19556636 -6.79704424 0 0 Z " fill="#FFFFFF" transform="translate(259,22)"/>
<path d="M0 0 C4.29 0 8.58 0 13 0 C13 4.62 13 9.24 13 14 C17.29 14 21.58 14 26 14 C26 17.63 26 21.26 26 25 C21.71 25 17.42 25 13 25 C13.33 33.58 13.66 42.16 14 51 C17.63 51.33 21.26 51.66 25 52 C25 55.63 25 59.26 25 63 C22.10359882 63.08120751 19.20949088 63.14059421 16.3125 63.1875 C15.08756836 63.22520508 15.08756836 63.22520508 13.83789062 63.26367188 C9.08636451 63.32138272 5.78296519 63.21877535 2 60 C-0.42578551 56.38919517 -0.23026646 53.09250783 -0.1953125 48.828125 C-0.1924826 48.1457074 -0.18965271 47.46328979 -0.18673706 46.76019287 C-0.17558098 44.58994693 -0.15048557 42.42012029 -0.125 40.25 C-0.11496426 38.77474556 -0.10583944 37.29948463 -0.09765625 35.82421875 C-0.07565687 32.21601058 -0.04115883 28.60804625 0 25 C-3.96 25 -7.92 25 -12 25 C-12 21.37 -12 17.74 -12 14 C-8.04 14 -4.08 14 0 14 C0 9.38 0 4.76 0 0 Z " fill="#FFFFFF" transform="translate(99,5)"/>
<path d="M0 0 C4.29 0 8.58 0 13 0 C13 22.44 13 44.88 13 68 C8.71 68 4.42 68 0 68 C0 45.56 0 23.12 0 0 Z " fill="#FFFFFF" transform="translate(66,0)"/>
<path d="M0 0 C4.29 0 8.58 0 13 0 C13.33 1.32 13.66 2.64 14 4 C14.433125 3.525625 14.86625 3.05125 15.3125 2.5625 C18.19915196 -0.11032589 20.94099486 -0.11679718 24.6875 -0.0625 C26.8221875 -0.0315625 26.8221875 -0.0315625 29 0 C29 3.96 29 7.92 29 12 C26.55859375 12.13020833 24.1171875 12.26041667 21.67578125 12.390625 C18.13283766 13.19748515 16.54638903 14.40339459 14 17 C13.22021677 20.47008913 13.22021677 20.47008913 13.29296875 24.390625 C13.27784744 25.09523865 13.26272614 25.79985229 13.24714661 26.52581787 C13.20429485 28.76753805 13.19543532 31.00791122 13.1875 33.25 C13.16435331 34.77347325 13.13898759 36.2969145 13.11132812 37.8203125 C13.04850475 41.54684896 13.01614681 45.27293589 13 49 C8.71 49 4.42 49 0 49 C0 32.83 0 16.66 0 0 Z " fill="#FFFFFF" transform="translate(189,19)"/>
<path d="M0 0 C2.64 0 5.28 0 8 0 C9.4783226 2.95664519 9.06032783 5.74229737 9 9 C9.66 9 10.32 9 11 9 C11 9.99 11 10.98 11 12 C7.04 12 3.08 12 -1 12 C-2.11658501 7.31034294 -1.80619523 4.46236469 0 0 Z M2 7 C2 7.66 2 8.32 2 9 C3.32 8.67 4.64 8.34 6 8 C4.68 7.67 3.36 7.34 2 7 Z " fill="#FFFFFF" transform="translate(230,76)"/>
<path d="M0 0 C2 1.625 2 1.625 3 4 C2.77962372 7.67293796 2.63033454 9.36966546 0 12 C-6.05240175 12.55021834 -6.05240175 12.55021834 -8.9375 10.875 C-10.50422245 8.11019567 -10.38976435 6.11811483 -10 3 C-7.72375139 -1.01690931 -4.20725277 -0.5259066 0 0 Z M-5 3 C-5.33 4.65 -5.66 6.3 -6 8 C-4.68 8.33 -3.36 8.66 -2 9 C-1.67 7.35 -1.34 5.7 -1 4 C-2.32 3.67 -3.64 3.34 -5 3 Z " fill="#FFFFFF" transform="translate(285,76)"/>
<path d="M0 0 C0.94552734 0.16242188 0.94552734 0.16242188 1.91015625 0.328125 C4.22348111 3.79811229 4.24973188 5.25321748 3.91015625 9.328125 C2.92015625 10.813125 2.92015625 10.813125 1.91015625 12.328125 C-1.17363326 12.71971732 -3.14312804 12.96427951 -6.08984375 12.328125 C-8.21484375 10.203125 -8.21484375 10.203125 -9.08984375 7.328125 C-7.56022543 0.69977895 -6.66067931 0.24176694 0 0 Z M-4.08984375 3.328125 C-4.41984375 4.978125 -4.74984375 6.628125 -5.08984375 8.328125 C-3.76984375 8.658125 -2.44984375 8.988125 -1.08984375 9.328125 C-0.75984375 7.678125 -0.42984375 6.028125 -0.08984375 4.328125 C-1.40984375 3.998125 -2.72984375 3.668125 -4.08984375 3.328125 Z " fill="#FFFFFF" transform="translate(199.08984375,75.671875)"/>
<path d="M0 0 C1.60875 -0.04125 3.2175 -0.0825 4.875 -0.125 C5.77992188 -0.14820312 6.68484375 -0.17140625 7.6171875 -0.1953125 C10 0 10 0 12 2 C12.1953125 4.3828125 12.1953125 4.3828125 12.125 7.125 C12.10695312 8.03507812 12.08890625 8.94515625 12.0703125 9.8828125 C12.04710937 10.58148438 12.02390625 11.28015625 12 12 C10.68 12 9.36 12 8 12 C8 9.03 8 6.06 8 3 C7.01 3.33 6.02 3.66 5 4 C4.67 6.64 4.34 9.28 4 12 C2.68 12 1.36 12 0 12 C0 8.04 0 4.08 0 0 Z " fill="#FFFFFF" transform="translate(171,76)"/>
<path d="M0 0 C1.60875 -0.061875 3.2175 -0.12375 4.875 -0.1875 C5.77992188 -0.22230469 6.68484375 -0.25710937 7.6171875 -0.29296875 C8.79667969 -0.14794922 8.79667969 -0.14794922 10 0 C12.13586678 3.20380017 12.23132175 4.01939967 12.125 7.6875 C12.10695313 8.49574219 12.08890625 9.30398437 12.0703125 10.13671875 C12.03550781 11.05904297 12.03550781 11.05904297 12 12 C10.68 12 9.36 12 8 12 C8 9.03 8 6.06 8 3 C7.01 3.33 6.02 3.66 5 4 C4.67 6.64 4.34 9.28 4 12 C2.68 12 1.36 12 0 12 C0 8.04 0 4.08 0 0 Z " fill="#FFFFFF" transform="translate(295,76)"/>
<path d="M0 0 C1.134375 0.020625 2.26875 0.04125 3.4375 0.0625 C5.4375 3.8125 5.4375 3.8125 5.4375 6.0625 C5.458125 6.908125 5.47875 7.75375 5.5 8.625 C5.4375 11.0625 5.4375 11.0625 4.4375 12.0625 C1.76691149 12.20365161 -0.88682238 12.10497107 -3.5625 12.0625 C-4.625 10.1875 -4.625 10.1875 -5.5625 8.0625 C-5.2325 7.4025 -4.9025 6.7425 -4.5625 6.0625 C-4.5625 5.216875 -4.5625 4.37125 -4.5625 3.5 C-4.5625 -0.40457945 -4.03040801 0.07070891 0 0 Z M-1.5625 7.0625 C-1.5625 7.7225 -1.5625 8.3825 -1.5625 9.0625 C-0.2425 8.7325 1.0775 8.4025 2.4375 8.0625 C1.1175 7.7325 -0.2025 7.4025 -1.5625 7.0625 Z " fill="#FFFFFF" transform="translate(319.5625,75.9375)"/>
<path d="M0 0 C0.99 0 1.98 0 3 0 C3.66 1.65 4.32 3.3 5 5 C5.66 3.35 6.32 1.7 7 0 C7.99 0 8.98 0 10 0 C10 3.63 10 7.26 10 11 C6.7 11 3.4 11 0 11 C0 7.37 0 3.74 0 0 Z " fill="#FFFFFF" transform="translate(447,10)"/>
<path d="M0 0 C6.8359375 -0.1953125 6.8359375 -0.1953125 9 0 C11 2 11 2 11.1953125 4.3828125 C11.17210937 5.28773437 11.14890625 6.19265625 11.125 7.125 C11.10695312 8.03507812 11.08890625 8.94515625 11.0703125 9.8828125 C11.04710937 10.58148438 11.02390625 11.28015625 11 12 C10.01 12 9.02 12 8 12 C7.67 9.36 7.34 6.72 7 4 C6.01 3.67 5.02 3.34 4 3 C3.67 5.97 3.34 8.94 3 12 C2.01 12 1.02 12 0 12 C0 8.04 0 4.08 0 0 Z " fill="#FFFFFF" transform="translate(152,76)"/>
<path d="M0 0 C1.875 0.1875 1.875 0.1875 4 1 C5.25 3.5625 5.25 3.5625 6 6 C6.66 4.02 7.32 2.04 8 0 C9.32 0 10.64 0 12 0 C11.52494322 1.81358154 11.04483958 3.62584179 10.5625 5.4375 C10.29566406 6.44683594 10.02882812 7.45617187 9.75390625 8.49609375 C9 11 9 11 8 12 C6.33382885 12.04063832 4.66611905 12.042721 3 12 C2.49166409 10.75336669 1.99368855 9.50250613 1.5 8.25 C1.2215625 7.55390625 0.943125 6.8578125 0.65625 6.140625 C0 4 0 4 0 0 Z " fill="#FFFFFF" transform="translate(210,76)"/>
<path d="M0 0 C0.99 0 1.98 0 3 0 C3 1.32 3 2.64 3 4 C3.99 4 4.98 4 6 4 C6 4.99 6 5.98 6 7 C5.01 7 4.02 7 3 7 C3 8.98 3 10.96 3 13 C3.99 13 4.98 13 6 13 C6 13.99 6 14.98 6 16 C4.02 16 2.04 16 0 16 C0 13.03 0 10.06 0 7 C-0.99 7 -1.98 7 -3 7 C-3 6.01 -3 5.02 -3 4 C-2.01 4 -1.02 4 0 4 C0 2.68 0 1.36 0 0 Z " fill="#FFFFFF" transform="translate(250,72)"/>
<path d="M0 0 C1.32 0 2.64 0 4 0 C4 5.61 4 11.22 4 17 C2.68 17 1.36 17 0 17 C0 11.39 0 5.78 0 0 Z " fill="#FFFFFF" transform="translate(140,71)"/>
<path d="M0 0 C2.64 0 5.28 0 8 0 C8 0.99 8 1.98 8 3 C7.01 3 6.02 3 5 3 C5 5.64 5 8.28 5 11 C4.34 11 3.68 11 3 11 C3 8.36 3 5.72 3 3 C2.01 3 1.02 3 0 3 C0 2.01 0 1.02 0 0 Z " fill="#FFFFFF" transform="translate(438,10)"/>
<path d="M0 0 C0.99 0 1.98 0 3 0 C3 3.96 3 7.92 3 12 C2.01 12 1.02 12 0 12 C0 8.04 0 4.08 0 0 Z " fill="#FFFFFF" transform="translate(264,76)"/>
<path d="M0 0 C1.98 0.495 1.98 0.495 4 1 C4 1.99 4 2.98 4 4 C2.35 3.67 0.7 3.34 -1 3 C-0.67 2.01 -0.34 1.02 0 0 Z " fill="#FFFFFF" transform="translate(264,71)"/>
</svg>
